<?xml version="1.0" encoding="UTF-8" standalone="no"?>
<!-- Created with Inkscape (http://www.inkscape.org/) -->

<svg
   width="210mm"
   height="297mm"
   viewBox="0 0 210 297"
   version="1.1"
   id="svg5"
   inkscape:version="1.1.2 (0a00cf5339, 2022-02-04, custom)"
   sodipodi:docname="magic-stars.svg"
   xmlns:inkscape="http://www.inkscape.org/namespaces/inkscape"
   xmlns:sodipodi="http://sodipodi.sourceforge.net/DTD/sodipodi-0.dtd"
   xmlns="http://www.w3.org/2000/svg"
   xmlns:svg="http://www.w3.org/2000/svg">
  <sodipodi:namedview
     id="namedview7"
     pagecolor="#ffffff"
     bordercolor="#666666"
     borderopacity="1.0"
     inkscape:pageshadow="2"
     inkscape:pageopacity="0.0"
     inkscape:pagecheckerboard="true"
     inkscape:document-units="mm"
     showgrid="false"
     inkscape:zoom="0.39935676"
     inkscape:cx="-145.23355"
     inkscape:cy="605.97446"
     inkscape:window-width="1920"
     inkscape:window-height="1051"
     inkscape:window-x="0"
     inkscape:window-y="0"
     inkscape:window-maximized="1"
     inkscape:current-layer="layer1" />
  <defs
     id="defs2" />
  <g
     inkscape:label="Layer 1"
     inkscape:groupmode="layer"
     id="layer1">
    <path
       sodipodi:type="spiral"
       style="fill:none;fill-rule:evenodd;stroke:#000000"
       id="path877"
       sodipodi:cx="-152.93695"
       sodipodi:cy="257.69839"
       sodipodi:expansion="1"
       sodipodi:revolution="3"
       sodipodi:radius="88.661606"
       sodipodi:argument="-18.161997"
       sodipodi:t0="0"
       d="m -152.93695,257.69839 c 3.43536,2.82126 -2.10811,6.0227 -4.68911,5.70979 -6.99435,-0.84797 -8.95534,-9.50777 -6.73047,-15.08801 3.97977,-9.98173 16.62641,-12.34662 25.48691,-7.75114 13.00314,6.74405 15.82679,23.8374 8.77182,35.88581 -9.40315,16.05863 -31.08063,19.34411 -46.28471,9.7925 -19.13277,-12.01973 -22.88052,-38.3391 -10.81317,-56.68361 14.61517,-22.21766 45.6061,-26.42796 67.08251,-11.83386 25.309192,17.19865 29.982303,52.87845 12.85453,77.48141 -19.7747,28.4051 -60.15434,33.54128 -87.88031,13.87521 -31.50401,-22.34583 -37.10347,-67.43273 -14.89589,-98.2792 24.91356,-34.60509 74.71295,-40.66802 108.67811,-15.91657 37.707766,27.4788 44.234309,81.99453 16.937242,119.07701"
       transform="matrix(0.26458333,0,0,0.26458333,147.65803,13.605799)" />
    <path
       sodipodi:type="spiral"
       style="fill:none;fill-rule:evenodd;stroke:#000000"
       id="path881"
       sodipodi:cx="213.64702"
       sodipodi:cy="361.23529"
       sodipodi:expansion="1"
       sodipodi:revolution="3"
       sodipodi:radius="54.586502"
       sodipodi:argument="-18.119362"
       sodipodi:t0="0"
       d="m 213.64702,361.23529 c 2.0391,1.82554 -1.45477,3.64932 -3.03417,3.38912 -4.28006,-0.70514 -5.25904,-6.08336 -3.74406,-9.45745 2.70994,-6.03546 10.5511,-7.15827 15.88072,-4.09902 7.82143,4.48957 9.10974,15.07801 4.45397,22.30401 -6.2054,9.63112 -19.62571,11.08322 -28.72728,4.80892 -11.45341,-7.89555 -13.06804,-24.18328 -5.16388,-35.15057 9.573,-13.28285 28.7464,-15.05941 41.57385,-5.51883 15.1167,11.24326 17.05491,33.31299 5.87378,47.99714 -12.90905,16.95342 -37.88187,19.05314 -54.42041,6.22873 -18.79214,-14.57191 -21.05331,-42.45238 -6.58369,-60.84369 16.23273,-20.63228 47.02408,-23.05486 67.26698,-6.93864 22.47345,17.89206 25.05746,51.59666 7.29359,73.69025"
       transform="matrix(0.26458333,0,0,0.26458333,112.16219,71.298074)" />
    <path
       sodipodi:type="spiral"
       style="fill:none;fill-rule:evenodd;stroke:#000000"
       id="path883"
       sodipodi:cx="-123.51181"
       sodipodi:cy="617.92682"
       sodipodi:expansion="1"
       sodipodi:revolution="3"
       sodipodi:radius="100.7816"
       sodipodi:argument="-17.970707"
       sodipodi:t0="0"
       d="m -123.51181,617.92682 c 3.22402,3.89086 -3.65418,6.26553 -6.46686,5.35854 -7.6222,-2.45789 -7.93907,-12.54574 -4.25022,-18.29226 6.5985,-10.27918 21.2228,-10.18519 30.11766,-3.1419 13.053573,10.33631 12.510523,30.02214 2.03358,41.94306 -13.96412,15.88872 -38.86549,14.87037 -53.76847,0.92526 -18.75387,-17.5485 -17.24821,-47.72996 0.18307,-65.59387 21.11161,-21.63559 56.606349,-19.63651 77.419269,1.29139 24.527306,24.66281 22.031382,65.49018 -2.399712,89.24467 -28.206667,27.4255 -74.378977,24.43063 -101.070067,-3.50803 -30.32812,-31.74569 -26.83295,-83.27126 4.61635,-112.89547 35.28137,-33.2339 92.166085,-29.23749 124.720875,5.72467 36.141987,38.81463 31.643692,101.06282 -6.832999,136.54628"
       transform="matrix(0.26458333,0,0,0.26458333,68.360949,-35.009194)" />
    <path
       sodipodi:type="spiral"
       style="fill:none;fill-rule:evenodd;stroke:#000000"
       id="path885"
       sodipodi:cx="186.24048"
       sodipodi:cy="674.26935"
       sodipodi:expansion="1"
       sodipodi:revolution="3"
       sodipodi:radius="78.88765"
       sodipodi:argument="-18.430325"
       sodipodi:t0="0"
       d="m 186.24048,674.26935 c 3.61278,1.61004 -0.38788,5.66429 -2.67599,6.00468 -6.20064,0.92242 -9.9258,-6.04443 -9.33337,-11.35666 1.05971,-9.50234 11.35167,-14.51449 20.03733,-12.66206 12.74655,2.71852 19.20121,16.7172 15.99074,28.718 -4.27905,15.99518 -22.1016,23.92743 -37.39867,19.31943 -19.24978,-5.7987 -28.67361,-27.49458 -22.64811,-46.07934 7.29768,-22.50862 32.89229,-33.43127 54.76,-25.9768 25.77035,8.78482 38.19612,38.29294 29.3055,63.44067 -10.26458,29.03406 -43.69556,42.96577 -72.12135,32.63419 -32.29919,-11.7394 -47.73877,-49.09955 -35.96287,-80.80202 13.21078,-35.56538 54.50455,-52.51422 89.48269,-39.29156 38.83236,14.67966 57.29149,59.91032 42.62024,98.16336"
       transform="matrix(0.26458333,0,0,0.26458333,82.485014,45.640137)" />
    <path
       sodipodi:type="star"
       style="fill:#000000;stroke-width:0;stroke-linejoin:round"
       id="path909"
       inkscape:flatsided="false"
       sodipodi:sides="5"
       sodipodi:cx="-41.757942"
       sodipodi:cy="222.36664"
       sodipodi:r1="79.20578"
       sodipodi:r2="39.60289"
       sodipodi:arg1="0.90317152"
       sodipodi:arg2="1.5314901"
       inkscape:rounded="0"
       inkscape:randomized="0"
       d="m 7.2801391,284.56649 -47.4818421,-22.62755 -45.558218,26.2865 6.847388,-52.15022 -39.078207,-35.20546 51.713759,-9.60305 21.406556,-48.04467 25.113474,46.2152 52.308188,5.51222 -36.1927799,38.16562 z"
       transform="matrix(0.26458333,0,0,0.26458333,82.485014,45.640137)"
       inkscape:transform-center-x="0.25447876"
       inkscape:transform-center-y="-1.7576016" />
    <path
       sodipodi:type="star"
       style="fill:#000000;stroke-width:0;stroke-linejoin:round"
       id="path911"
       inkscape:flatsided="false"
       sodipodi:sides="5"
       sodipodi:cx="-163.0083"
       sodipodi:cy="435.98672"
       sodipodi:r1="67.761131"
       sodipodi:r2="33.880566"
       sodipodi:arg1="0.52493058"
       sodipodi:arg2="1.1532491"
       inkscape:rounded="0"
       inkscape:randomized="0"
       d="m -104.37061,469.94541 -44.89846,-2.98892 -27.91582,35.2918 -11.03175,-43.62459 -42.19096,-15.64376 38.08046,-23.97256 1.84037,-44.96018 34.56676,28.80874 43.32838,-12.14316 -16.71702,41.77734 z"
       transform="matrix(0.26458333,0,0,0.26458333,91.652029,57.648299)"
       inkscape:transform-center-x="1.1590881"
       inkscape:transform-center-y="0.57176863" />
    <path
       sodipodi:type="star"
       style="fill:#000000;stroke-width:0;stroke-linejoin:round"
       id="path913"
       inkscape:flatsided="false"
       sodipodi:sides="5"
       sodipodi:cx="72.177788"
       sodipodi:cy="365.38202"
       sodipodi:r1="152.65961"
       sodipodi:r2="76.329796"
       sodipodi:arg1="0.6798623"
       sodipodi:arg2="1.3081808"
       inkscape:rounded="0"
       inkscape:randomized="0"
       d="M 190.89495,461.35697 91.993559,439.09479 17.585807,507.94664 8.1961846,407.00644 -80.279074,357.51685 l 93.098285,-40.1223 19.727035,-99.43809 66.927527,76.14325 100.667237,-11.96653 -51.7348,87.18142 z"
       transform="matrix(0.26458333,0,0,0.26458333,92.280353,41.300566)"
       inkscape:transform-center-x="3.2403045"
       inkscape:transform-center-y="-0.64306313" />
    <path
       sodipodi:type="star"
       style="fill:#000000;stroke-width:0;stroke-linejoin:round"
       id="path915"
       inkscape:flatsided="false"
       sodipodi:sides="5"
       sodipodi:cx="276.061"
       sodipodi:cy="162.10062"
       sodipodi:r1="57.260529"
       sodipodi:r2="28.630264"
       sodipodi:arg1="1.2041329"
       sodipodi:arg2="1.8324515"
       inkscape:rounded="0"
       inkscape:randomized="0"
       d="m 296.58906,215.55496 -27.93412,-25.79856 -37.08852,8.38585 15.90377,-34.53912 -19.4364,-32.6819 37.76319,4.45221 25.07616,-28.58438 7.43516,37.29074 34.93433,15.01578 -33.16802,18.59473 z"
       transform="matrix(0.26458333,0,0,0.26458333,82.485014,45.640137)"
       inkscape:transform-center-x="-1.2110504"
       inkscape:transform-center-y="-0.24569428" />
    <path
       sodipodi:type="star"
       style="fill:#000000;fill-opacity:1;stroke-width:0;stroke-linejoin:round"
       id="path917"
       inkscape:flatsided="false"
       sodipodi:sides="5"
       sodipodi:cx="310.96469"
       sodipodi:cy="339.73718"
       sodipodi:r1="60.283741"
       sodipodi:r2="30.14187"
       sodipodi:arg1="1.2698042"
       sodipodi:arg2="1.8981227"
       inkscape:rounded="0"
       inkscape:randomized="0"
       d="m 328.83688,397.31074 -27.56318,-29.03206 -39.5419,6.24717 19.09363,-35.18554 -18.16053,-35.6761 39.36369,7.2862 28.31808,-28.29622 5.23447,39.68866 35.66207,18.18807 -36.12862,17.24275 z"
       transform="matrix(0.26458333,0,0,0.26458333,82.485014,45.640137)"
       inkscape:transform-center-x="-1.4612428"
       inkscape:transform-center-y="0.064895643" />
    <path
       sodipodi:type="star"
       style="fill:#000000;fill-opacity:0.897912;stroke-width:0;stroke-linejoin:round"
       id="path919"
       inkscape:flatsided="false"
       sodipodi:sides="5"
       sodipodi:cx="69.803902"
       sodipodi:cy="532.42383"
       sodipodi:r1="87.223808"
       sodipodi:r2="43.611904"
       sodipodi:arg1="1.214885"
       sodipodi:arg2="1.8432035"
       inkscape:rounded="0"
       inkscape:randomized="0"
       d="M 100.19658,614.18126 58.070092,574.42759 1.4398147,586.59342 26.230005,534.24419 -2.8401034,484.14504 l 57.4476664,7.40007 38.663961,-43.1288 10.714416,56.92272 52.96576,23.44408 -50.8258,27.78011 z"
       transform="matrix(0.26458333,0,0,0.26458333,100.60022,53.919286)"
       inkscape:transform-center-x="-1.9187299"
       inkscape:transform-center-y="-0.29766958" />
  </g>
</svg>
